<?xml version="1.0" encoding="UTF-8" standalone="no"?>
<svg
   version="1.1"
   width="6"
   height="7"
   shape-rendering="crispEdges"
   id="svg856"
   sodipodi:docname="arrow-right.svg"
   inkscape:export-filename="arrow-right.svg"
   inkscape:export-xdpi="96"
   inkscape:export-ydpi="96"
   xmlns:inkscape="http://www.inkscape.org/namespaces/inkscape"
   xmlns:sodipodi="http://sodipodi.sourceforge.net/DTD/sodipodi-0.dtd"
   xmlns="http://www.w3.org/2000/svg"
   xmlns:svg="http://www.w3.org/2000/svg">
  <defs
     id="defs860" />
  <sodipodi:namedview
     id="namedview858"
     pagecolor="#ffffff"
     bordercolor="#000000"
     borderopacity="0.25"
     inkscape:showpageshadow="2"
     inkscape:pageopacity="0.0"
     inkscape:pagecheckerboard="0"
     inkscape:deskcolor="#d1d1d1"
     showgrid="false" />
  <rect
     x="0"
     y="0"
     width="1"
     height="1"
     fill="#000000"
     id="rect800" />
  <rect
     x="1"
     y="0"
     width="1"
     height="1"
     fill="#000000"
     id="rect802" />
  <rect
     x="0"
     y="1"
     width="1"
     height="1"
     fill="#000000"
     id="rect804" />
  <rect
     x="1"
     y="1"
     width="1"
     height="1"
     fill="#000000"
     id="rect806" />
  <rect
     x="2"
     y="1"
     width="1"
     height="1"
     fill="#000000"
     id="rect808" />
  <rect
     x="3"
     y="1"
     width="1"
     height="1"
     fill="#000000"
     id="rect810" />
  <rect
     x="0"
     y="2"
     width="1"
     height="1"
     fill="#000000"
     id="rect812" />
  <rect
     x="1"
     y="2"
     width="1"
     height="1"
     fill="#000000"
     id="rect814" />
  <rect
     x="2"
     y="2"
     width="1"
     height="1"
     fill="#000000"
     id="rect816" />
  <rect
     x="3"
     y="2"
     width="1"
     height="1"
     fill="#000000"
     id="rect818" />
  <rect
     x="4"
     y="2"
     width="1"
     height="1"
     fill="#000000"
     id="rect820" />
  <rect
     x="0"
     y="3"
     width="1"
     height="1"
     fill="#000000"
     id="rect822" />
  <rect
     x="1"
     y="3"
     width="1"
     height="1"
     fill="#000000"
     id="rect824" />
  <rect
     x="2"
     y="3"
     width="1"
     height="1"
     fill="#000000"
     id="rect826" />
  <rect
     x="3"
     y="3"
     width="1"
     height="1"
     fill="#000000"
     id="rect828" />
  <rect
     x="4"
     y="3"
     width="1"
     height="1"
     fill="#000000"
     id="rect830" />
  <rect
     x="5"
     y="3"
     width="1"
     height="1"
     fill="#000000"
     id="rect832" />
  <rect
     x="0"
     y="4"
     width="1"
     height="1"
     fill="#000000"
     id="rect834" />
  <rect
     x="1"
     y="4"
     width="1"
     height="1"
     fill="#000000"
     id="rect836" />
  <rect
     x="2"
     y="4"
     width="1"
     height="1"
     fill="#000000"
     id="rect838" />
  <rect
     x="3"
     y="4"
     width="1"
     height="1"
     fill="#000000"
     id="rect840" />
  <rect
     x="4"
     y="4"
     width="1"
     height="1"
     fill="#000000"
     id="rect842" />
  <rect
     x="0"
     y="5"
     width="1"
     height="1"
     fill="#000000"
     id="rect844" />
  <rect
     x="1"
     y="5"
     width="1"
     height="1"
     fill="#000000"
     id="rect846" />
  <rect
     x="2"
     y="5"
     width="1"
     height="1"
     fill="#000000"
     id="rect848" />
  <rect
     x="3"
     y="5"
     width="1"
     height="1"
     fill="#000000"
     id="rect850" />
  <rect
     x="0"
     y="6"
     width="1"
     height="1"
     fill="#000000"
     id="rect852" />
  <rect
     x="1"
     y="6"
     width="1"
     height="1"
     fill="#000000"
     id="rect854" />
</svg>
